<svg width="888" height="246" viewBox="0 0 888 246" fill="none" xmlns="http://www.w3.org/2000/svg">
<path d="M0 208.947V35.6075C0 25.222 8.672 8.40733 22.795 3.70912V43.5203C24.2816 53.164 40.139 56.1313 42.8645 43.5203V7.36927e-10C49.5543 -6.03695e-05 57.7307 3.70912 62.1906 6.92368V66.0222C64.4206 75.4186 78.7913 78.3859 82.2601 66.0222V18.5455L102.082 29.9201V115.972C85.9767 112.51 70.1265 116.144 52.5275 128.088C41.1301 135.823 34.1925 151.085 37.1657 162.459C41.1085 177.543 59.7129 186.445 85.4811 178.532C102.082 173.434 118.682 160.234 121.656 144.655V41.2948L141.725 52.4221V111.273C144.946 122.648 158.821 121.412 161.547 111.273V64.044L180.873 74.9241V133.528C186.572 145.892 197.722 143.914 201.19 133.528V86.7932C216.304 94.2115 225.72 106.575 223.738 129.077C222.866 138.968 217.296 149.106 203.916 157.266L59.7129 240.351C48.0677 247.027 33.9447 248.016 22.0517 242.082C8.17646 235.158 0 222.794 0 208.947Z" fill="#BE3455"/>
<path d="M0 208.947V35.6075C0 25.222 8.672 8.40733 22.795 3.70912V43.5203C24.2816 53.164 40.139 56.1313 42.8645 43.5203V7.36927e-10C49.5543 -6.03695e-05 57.7307 3.70912 62.1906 6.92368V66.0222C64.4206 75.4186 78.7913 78.3859 82.2601 66.0222V18.5455L102.082 29.9201V115.972C85.9767 112.51 70.1265 116.144 52.5275 128.088C41.1301 135.823 34.1925 151.085 37.1657 162.459C41.1085 177.543 59.7129 186.445 85.4811 178.532C102.082 173.434 118.682 160.234 121.656 144.655V41.2948L141.725 52.4221V111.273C144.946 122.648 158.821 121.412 161.547 111.273V64.044L180.873 74.9241V133.528C186.572 145.892 197.722 143.914 201.19 133.528V86.7932C216.304 94.2115 225.72 106.575 223.738 129.077C222.866 138.968 217.296 149.106 203.916 157.266L59.7129 240.351C48.0677 247.027 33.9447 248.016 22.0517 242.082C8.17646 235.158 0 222.794 0 208.947Z" fill="url(#paint0_linear_413_3)"/>
<path d="M323.462 150L310.919 132.018C310.393 132.077 309.603 132.106 308.551 132.106H294.691V150H283.288V88.599H308.551C313.872 88.599 318.492 89.4761 322.41 91.2305C326.386 92.9848 329.427 95.4993 331.532 98.774C333.637 102.049 334.69 105.937 334.69 110.44C334.69 115.06 333.55 119.036 331.269 122.37C329.047 125.703 325.831 128.188 321.62 129.825L335.742 150H323.462ZM323.199 110.44C323.199 106.522 321.913 103.511 319.34 101.405C316.767 99.3003 312.995 98.2477 308.024 98.2477H294.691V122.72H308.024C312.995 122.72 316.767 121.668 319.34 119.563C321.913 117.399 323.199 114.358 323.199 110.44ZM389.376 118.598H400.165V143.07C397.007 145.585 393.323 147.515 389.113 148.86C384.902 150.205 380.575 150.877 376.131 150.877C369.874 150.877 364.231 149.532 359.202 146.842C354.173 144.094 350.225 140.322 347.36 135.527C344.495 130.732 343.062 125.323 343.062 119.299C343.062 113.276 344.495 107.867 347.36 103.072C350.225 98.277 354.173 94.5344 359.202 91.8445C364.289 89.096 369.991 87.7218 376.306 87.7218C381.452 87.7218 386.13 88.5697 390.341 90.2656C394.551 91.9614 398.089 94.4467 400.954 97.7214L393.762 104.739C389.083 100.061 383.44 97.7214 376.832 97.7214C372.505 97.7214 368.646 98.6278 365.254 100.441C361.921 102.253 359.289 104.797 357.36 108.072C355.488 111.347 354.553 115.089 354.553 119.299C354.553 123.393 355.488 127.077 357.36 130.352C359.289 133.626 361.921 136.199 365.254 138.071C368.646 139.942 372.476 140.878 376.745 140.878C381.54 140.878 385.75 139.825 389.376 137.72V118.598ZM455.028 135.79H424.327L418.275 150H406.521L434.151 88.599H445.379L473.097 150H461.168L455.028 135.79ZM451.256 126.843L439.677 100.002L428.187 126.843H451.256ZM521.08 150L508.536 132.018C508.01 132.077 507.221 132.106 506.168 132.106H492.309V150H480.906V88.599H506.168C511.489 88.599 516.109 89.4761 520.027 91.2305C524.003 92.9848 527.044 95.4993 529.149 98.774C531.255 102.049 532.307 105.937 532.307 110.44C532.307 115.06 531.167 119.036 528.886 122.37C526.664 125.703 523.448 128.188 519.238 129.825L533.36 150H521.08ZM520.816 110.44C520.816 106.522 519.53 103.511 516.957 101.405C514.384 99.3003 510.612 98.2477 505.642 98.2477H492.309V122.72H505.642C510.612 122.72 514.384 121.668 516.957 119.563C519.53 117.399 520.816 114.358 520.816 110.44ZM625.708 150L625.62 109.3L605.446 142.983H600.358L580.184 109.826V150H569.307V88.599H578.692L603.077 129.299L627.024 88.599H636.409L636.497 150H625.708ZM679.485 150.877C671.005 150.877 664.398 148.509 659.661 143.772C654.924 138.977 652.556 132.135 652.556 123.247V88.599H663.959V122.808C663.959 134.854 669.163 140.878 679.572 140.878C689.923 140.878 695.098 134.854 695.098 122.808V88.599H706.326V123.247C706.326 132.135 703.957 138.977 699.221 143.772C694.543 148.509 687.964 150.877 679.485 150.877ZM741.33 150.877C736.593 150.877 732.003 150.205 727.558 148.86C723.173 147.515 719.693 145.731 717.12 143.509L721.067 134.65C723.582 136.638 726.652 138.275 730.278 139.562C733.962 140.79 737.646 141.404 741.33 141.404C745.891 141.404 749.283 140.673 751.505 139.211C753.785 137.749 754.926 135.819 754.926 133.422C754.926 131.667 754.282 130.235 752.996 129.124C751.768 127.954 750.189 127.048 748.259 126.404C746.33 125.761 743.698 125.03 740.365 124.212C735.687 123.101 731.886 121.989 728.962 120.878C726.096 119.767 723.611 118.042 721.506 115.703C719.459 113.306 718.436 110.089 718.436 106.054C718.436 102.663 719.342 99.5927 721.155 96.8443C723.026 94.0374 725.804 91.8152 729.488 90.1779C733.231 88.5405 737.792 87.7218 743.172 87.7218C746.914 87.7218 750.598 88.1896 754.224 89.1253C757.85 90.0609 760.978 91.4059 763.61 93.1602L760.013 102.019C757.323 100.441 754.516 99.2418 751.592 98.4231C748.669 97.6045 745.832 97.1951 743.084 97.1951C738.581 97.1951 735.219 97.9553 732.997 99.4757C730.833 100.996 729.751 103.014 729.751 105.528C729.751 107.282 730.365 108.715 731.593 109.826C732.88 110.937 734.488 111.814 736.418 112.458C738.347 113.101 740.979 113.832 744.312 114.651C748.873 115.703 752.616 116.814 755.54 117.984C758.464 119.095 760.949 120.82 762.996 123.159C765.101 125.498 766.153 128.656 766.153 132.632C766.153 136.024 765.218 139.094 763.346 141.842C761.534 144.591 758.756 146.784 755.013 148.421C751.271 150.058 746.71 150.877 741.33 150.877ZM777.46 88.599H788.863V150H777.46V88.599ZM833.891 150.877C827.692 150.877 822.079 149.532 817.05 146.842C812.079 144.094 808.161 140.322 805.296 135.527C802.489 130.732 801.085 125.323 801.085 119.299C801.085 113.276 802.518 107.867 805.383 103.072C808.249 98.277 812.167 94.5344 817.137 91.8445C822.166 89.096 827.78 87.7218 833.979 87.7218C839.008 87.7218 843.598 88.599 847.75 90.3533C851.902 92.1076 855.411 94.6514 858.276 97.9846L850.908 104.914C846.464 100.119 840.996 97.7214 834.505 97.7214C830.295 97.7214 826.523 98.6571 823.19 100.528C819.857 102.341 817.254 104.885 815.383 108.16C813.512 111.434 812.576 115.148 812.576 119.299C812.576 123.451 813.512 127.165 815.383 130.439C817.254 133.714 819.857 136.287 823.19 138.158C826.523 139.971 830.295 140.878 834.505 140.878C840.996 140.878 846.464 138.451 850.908 133.597L858.276 140.614C855.411 143.948 851.873 146.491 847.662 148.246C843.511 150 838.92 150.877 833.891 150.877Z" fill="#7F6FA8"/>
<defs>
<linearGradient id="paint0_linear_413_3" x1="106.542" y1="48.2185" x2="10.3771" y2="157.953" gradientUnits="userSpaceOnUse">
<stop stop-color="#5694DD"/>
<stop offset="1" stop-color="#BE3455" stop-opacity="0"/>
</linearGradient>
</defs>
</svg>
