<svg width="224" height="246" viewBox="0 0 224 246" fill="none" xmlns="http://www.w3.org/2000/svg">
<path d="M0 208.947V35.6075C0 25.222 8.672 8.40733 22.795 3.70912V43.5203C24.2816 53.164 40.139 56.1313 42.8645 43.5203V7.36927e-10C49.5543 -6.03695e-05 57.7307 3.70912 62.1906 6.92368V66.0222C64.4206 75.4186 78.7913 78.3859 82.2601 66.0222V18.5455L102.082 29.9201V115.972C85.9767 112.51 70.1265 116.144 52.5275 128.088C41.1301 135.823 34.1925 151.085 37.1657 162.459C41.1085 177.543 59.7129 186.445 85.4811 178.532C102.082 173.434 118.682 160.234 121.656 144.655V41.2948L141.725 52.4221V111.273C144.946 122.648 158.821 121.412 161.547 111.273V64.044L180.873 74.9241V133.528C186.572 145.892 197.722 143.914 201.19 133.528V86.7932C216.304 94.2115 225.72 106.575 223.738 129.077C222.866 138.968 217.296 149.106 203.916 157.266L59.7129 240.351C48.0677 247.027 33.9447 248.016 22.0517 242.082C8.17646 235.158 0 222.794 0 208.947Z" fill="#BE3455"/>
<path d="M0 208.947V35.6075C0 25.222 8.672 8.40733 22.795 3.70912V43.5203C24.2816 53.164 40.139 56.1313 42.8645 43.5203V7.36927e-10C49.5543 -6.03695e-05 57.7307 3.70912 62.1906 6.92368V66.0222C64.4206 75.4186 78.7913 78.3859 82.2601 66.0222V18.5455L102.082 29.9201V115.972C85.9767 112.51 70.1265 116.144 52.5275 128.088C41.1301 135.823 34.1925 151.085 37.1657 162.459C41.1085 177.543 59.7129 186.445 85.4811 178.532C102.082 173.434 118.682 160.234 121.656 144.655V41.2948L141.725 52.4221V111.273C144.946 122.648 158.821 121.412 161.547 111.273V64.044L180.873 74.9241V133.528C186.572 145.892 197.722 143.914 201.19 133.528V86.7932C216.304 94.2115 225.72 106.575 223.738 129.077C222.866 138.968 217.296 149.106 203.916 157.266L59.7129 240.351C48.0677 247.027 33.9447 248.016 22.0517 242.082C8.17646 235.158 0 222.794 0 208.947Z" fill="url(#paint0_linear_9_3)"/>
<defs>
<linearGradient id="paint0_linear_9_3" x1="106.542" y1="48.2185" x2="10.3771" y2="157.953" gradientUnits="userSpaceOnUse">
<stop stop-color="#5694DD"/>
<stop offset="1" stop-color="#BE3455" stop-opacity="0"/>
</linearGradient>
</defs>
</svg>
